<svg width="512" height="512" viewBox="0 0 512 512" fill="none" xmlns="http://www.w3.org/2000/svg">
<path d="M399.736 165.12C396.08 160.544 392.16 156.096 388.08 151.896L376.6 163.032C380.32 166.872 383.904 170.936 387.24 175.112L399.736 165.12Z" fill="#CFA836"/>
<path d="M404.848 202.024L419.016 194.592C416.28 189.384 413.272 184.264 410.08 179.392L396.696 188.192C399.608 192.608 402.352 197.272 404.848 202.024Z" fill="#CFA836"/>
<path d="M375.2 139.84C370.736 136.048 366.048 132.424 361.256 129.08L352.096 142.184C356.464 145.248 360.752 148.584 364.832 152.032L375.2 139.84Z" fill="#CFA836"/>
<path d="M423.2 263.36L439.128 261.76C438.552 255.896 437.688 250.024 436.56 244.296L420.864 247.392C421.872 252.648 422.664 258.008 423.2 263.36Z" fill="#CFA836"/>
<path d="M416.984 231.808L432.312 227.216C430.64 221.616 428.664 216.016 426.456 210.592L411.632 216.624C413.656 221.6 415.456 226.688 416.984 231.808Z" fill="#CFA836"/>
<path d="M423.296 295.528L439.224 296.992C439.736 291.392 440.024 285.672 440.024 279.392L424 280C424 285.184 423.76 290.4 423.296 295.528Z" fill="#CFA836"/>
<path d="M216.8 459.808C221.928 460.92 227.16 461.824 232.36 462.488L234.384 446.624C229.648 446.008 224.872 445.184 220.2 444.168L216.8 459.808Z" fill="#CFA836"/>
<path d="M248.72 447.84L248.024 463.84C250.675 463.947 253.333 464 256 464C258.616 464 261.216 463.944 263.816 463.832L263.136 447.832C258.344 448.056 253.496 448.048 248.72 447.84Z" fill="#CFA836"/>
<path d="M186.64 450.48C191.52 452.464 196.52 454.256 201.504 455.792L206.224 440.504C201.688 439.104 197.128 437.472 192.672 435.656L186.64 450.48Z" fill="#CFA836"/>
<path d="M305.6 440.552L310.312 455.84C315.32 454.296 320.32 452.504 325.184 450.528L319.2 435.712C314.76 437.512 310.192 439.144 305.6 440.552Z" fill="#CFA836"/>
<path d="M277.504 446.632L279.528 462.504C284.72 461.84 289.928 460.904 295.088 459.832L291.704 444.192C287.016 445.208 282.24 446.032 277.504 446.632Z" fill="#CFA836"/>
<path d="M88.696 295.344C88.232 290.28 88 285.112 88 280V279.2L72 280C72 285.6 72.256 291.24 72.8 296.8L88.696 295.344Z" fill="#CFA836"/>
<path d="M100.416 216.496L85.6 210.44C83.392 215.848 81.416 221.44 79.728 227.056L95.056 231.656C96.592 226.528 98.4 221.432 100.416 216.496Z" fill="#CFA836"/>
<path d="M160 142.128L150.848 129.008C146.048 132.368 141.336 135.992 136.888 139.776L147.2 152C151.296 148.504 155.576 145.192 160 142.128Z" fill="#CFA836"/>
<path d="M91.2 247.264L75.488 244.16C74.352 249.904 73.488 255.776 72.904 261.6L88.832 263.2C89.352 257.864 90.152 252.504 91.2 247.264Z" fill="#CFA836"/>
<path d="M115.368 188.048L101.992 179.248C98.792 184.152 95.768 189.264 93.048 194.448L107.208 201.896C109.696 197.192 112.44 192.528 115.368 188.048Z" fill="#CFA836"/>
<path d="M135.472 162.968L124 151.816C119.928 156 116 160.448 112.336 165.016L124.816 175.032C128.176 170.848 131.76 166.792 135.472 162.968Z" fill="#CFA836"/>
<path d="M416 312C403.7 312.006 391.539 314.601 380.307 319.615C369.076 324.629 359.025 331.951 350.808 341.104L298.624 301.968C302.102 295.266 303.944 287.836 304 280.285C304.057 272.735 302.326 265.278 298.95 258.525C295.573 251.771 290.646 245.913 284.572 241.428C278.497 236.943 271.448 233.959 264 232.72V199.592C286.552 197.533 307.442 186.859 322.326 169.791C337.209 152.723 344.939 130.574 343.909 107.952C342.878 85.3295 333.167 63.9752 316.793 48.3307C300.42 32.6863 278.646 23.9561 256 23.9561C233.354 23.9561 211.58 32.6863 195.207 48.3307C178.833 63.9752 169.122 85.3295 168.091 107.952C167.061 130.574 174.791 152.723 189.674 169.791C204.558 186.859 225.448 197.533 248 199.592V232.72C240.552 233.96 233.502 236.945 227.428 241.431C221.354 245.917 216.427 251.776 213.051 258.53C209.674 265.284 207.943 272.741 208 280.292C208.056 287.843 209.899 295.273 213.376 301.976L161.2 341.104C145.979 324.241 124.844 313.896 102.19 312.221C79.5357 310.545 57.1079 317.668 39.5723 332.108C22.0366 346.548 10.7433 367.193 8.04182 389.747C5.34035 412.302 11.4387 435.03 25.0682 453.202C38.6977 471.375 58.8089 483.593 81.2178 487.315C103.627 491.037 126.608 485.976 145.38 473.185C164.152 460.394 177.27 440.858 182.005 418.641C186.74 396.424 182.726 373.237 170.8 353.904L222.984 314.776C231.873 323.273 243.695 328.015 255.992 328.015C268.289 328.015 280.111 323.273 289 314.776L341.184 353.904C331 370.485 326.606 389.976 328.689 409.323C330.772 428.67 339.216 446.779 352.696 460.813C366.176 474.846 383.931 484.01 403.178 486.869C422.426 489.729 442.078 486.121 459.055 476.612C476.033 467.103 489.375 452.231 496.992 434.325C504.61 416.419 506.071 396.492 501.147 377.666C496.223 358.841 485.192 342.181 469.783 330.297C454.375 318.414 435.459 311.978 416 312ZM64 464.4V448C64 439.513 67.3714 431.373 73.3726 425.372C79.3737 419.371 87.5131 416 96 416C104.487 416 112.626 419.371 118.627 425.372C124.629 431.373 128 439.513 128 448V464.4C118.072 469.394 107.113 471.996 96 471.996C84.8867 471.996 73.9277 469.394 64 464.4ZM80 384V376C80 371.756 81.6857 367.687 84.6863 364.686C87.6869 361.685 91.7565 360 96 360C100.243 360 104.313 361.685 107.314 364.686C110.314 367.687 112 371.756 112 376V384C112 388.243 110.314 392.313 107.314 395.313C104.313 398.314 100.243 400 96 400C91.7565 400 87.6869 398.314 84.6863 395.313C81.6857 392.313 80 388.243 80 384ZM144 453.512V448C143.995 439.412 141.686 430.983 137.314 423.591C132.942 416.2 126.668 410.116 119.144 405.976C124.815 400.063 127.987 392.192 128 384V376C128 367.513 124.629 359.373 118.627 353.372C112.626 347.371 104.487 344 96 344C87.5131 344 79.3737 347.371 73.3726 353.372C67.3714 359.373 64 367.513 64 376V384C64.0134 392.192 67.1855 400.063 72.856 405.976C65.3325 410.116 59.0576 416.2 54.6857 423.591C50.3138 430.983 48.005 439.412 48 448V453.512C37.1314 443.79 29.4706 430.998 26.0313 416.828C22.5921 402.657 23.5365 387.777 28.7396 374.155C33.9427 360.533 43.1592 348.812 55.1697 340.543C67.1801 332.274 81.4182 327.846 96 327.846C110.582 327.846 124.82 332.274 136.83 340.543C148.841 348.812 158.057 360.533 163.26 374.155C168.464 387.777 169.408 402.657 165.969 416.828C162.529 430.998 154.869 443.79 144 453.512ZM240 95.9997V87.9997C240 83.7562 241.686 79.6865 244.686 76.686C247.687 73.6854 251.757 71.9997 256 71.9997C260.243 71.9997 264.313 73.6854 267.314 76.686C270.314 79.6865 272 83.7562 272 87.9997V95.9997C272 100.243 270.314 104.313 267.314 107.313C264.313 110.314 260.243 112 256 112C251.757 112 247.687 110.314 244.686 107.313C241.686 104.313 240 100.243 240 95.9997ZM256 128C264.487 128 272.626 131.371 278.627 137.372C284.629 143.373 288 151.513 288 160V176.4C278.072 181.394 267.113 183.996 256 183.996C244.887 183.996 233.928 181.394 224 176.4V160C224 151.513 227.371 143.373 233.373 137.372C239.374 131.371 247.513 128 256 128ZM184 112C183.974 99.9831 186.957 88.1513 192.675 77.5826C198.394 67.014 206.666 58.0446 216.739 51.4922C226.812 44.9397 238.365 41.0126 250.344 40.0686C262.324 39.1247 274.349 41.1941 285.324 46.0881C296.298 50.9822 305.874 58.5452 313.177 68.0878C320.48 77.6304 325.279 88.8492 327.135 100.721C328.992 112.594 327.848 124.742 323.807 136.059C319.766 147.375 312.957 157.501 304 165.512V160C303.995 151.412 301.686 142.983 297.314 135.591C292.942 128.2 286.668 122.116 279.144 117.976C284.815 112.063 287.987 104.192 288 95.9997V87.9997C288 79.5127 284.629 71.3734 278.627 65.3722C272.626 59.3711 264.487 55.9997 256 55.9997C247.513 55.9997 239.374 59.3711 233.373 65.3722C227.371 71.3734 224 79.5127 224 87.9997V95.9997C224.013 104.192 227.185 112.063 232.856 117.976C225.332 122.116 219.058 128.2 214.686 135.591C210.314 142.983 208.005 151.412 208 160V165.512C200.457 158.785 194.42 150.541 190.284 141.319C186.149 132.097 184.007 122.106 184 112ZM256 312C249.671 312 243.484 310.123 238.222 306.607C232.959 303.09 228.858 298.093 226.436 292.246C224.014 286.398 223.38 279.964 224.615 273.757C225.85 267.549 228.897 261.848 233.373 257.372C237.848 252.897 243.55 249.849 249.757 248.615C255.965 247.38 262.399 248.014 268.246 250.436C274.093 252.858 279.091 256.959 282.607 262.221C286.123 267.484 288 273.671 288 280C288 288.487 284.629 296.626 278.627 302.627C272.626 308.628 264.487 312 256 312ZM384 464.4V448C384 439.513 387.371 431.373 393.373 425.372C399.374 419.371 407.513 416 416 416C424.487 416 432.626 419.371 438.627 425.372C444.629 431.373 448 439.513 448 448V464.4C438.072 469.394 427.113 471.996 416 471.996C404.887 471.996 393.928 469.394 384 464.4ZM400 384V376C400 371.756 401.686 367.687 404.686 364.686C407.687 361.685 411.757 360 416 360C420.243 360 424.313 361.685 427.314 364.686C430.314 367.687 432 371.756 432 376V384C432 388.243 430.314 392.313 427.314 395.313C424.313 398.314 420.243 400 416 400C411.757 400 407.687 398.314 404.686 395.313C401.686 392.313 400 388.243 400 384ZM464 453.512V448C463.995 439.412 461.686 430.983 457.314 423.591C452.942 416.2 446.668 410.116 439.144 405.976C444.815 400.063 447.987 392.192 448 384V376C448 367.513 444.629 359.373 438.627 353.372C432.626 347.371 424.487 344 416 344C407.513 344 399.374 347.371 393.373 353.372C387.371 359.373 384 367.513 384 376V384C384.013 392.192 387.185 400.063 392.856 405.976C385.332 410.116 379.058 416.2 374.686 423.591C370.314 430.983 368.005 439.412 368 448V453.512C357.131 443.79 349.471 430.998 346.031 416.828C342.592 402.657 343.536 387.777 348.74 374.155C353.943 360.533 363.159 348.812 375.17 340.543C387.18 332.274 401.418 327.846 416 327.846C430.582 327.846 444.82 332.274 456.83 340.543C468.841 348.812 478.057 360.533 483.26 374.155C488.464 387.777 489.408 402.657 485.969 416.828C482.529 430.998 474.869 443.79 464 453.512Z" fill="#CFA836"/>
</svg>
