<svg width="512" height="512" viewBox="0 0 512 512" fill="none" xmlns="http://www.w3.org/2000/svg">
<path d="M133.333 367.428L104.661 373.811C89.4626 377.109 75.8581 385.528 66.1258 397.659C56.3935 409.79 51.1241 424.896 51.2 440.448V454.255C51.2131 463.608 54.2922 472.7 59.9655 480.136C65.6388 487.573 73.5935 492.944 82.6112 495.428C110.302 502.98 162.859 512 256 512C349.141 512 401.698 502.98 429.389 495.428C438.406 492.944 446.361 487.573 452.035 480.136C457.708 472.7 460.787 463.608 460.8 454.255V440.448C460.876 424.896 455.607 409.79 445.874 397.659C436.142 385.528 422.537 377.109 407.339 373.811L378.667 367.428L339.55 343.97L323.823 307.277L328.943 301.38L332.791 302.413C336.818 303.478 340.965 304.02 345.131 304.026C357.714 303.998 369.772 298.98 378.659 290.073C387.546 281.165 392.536 269.095 392.533 256.512V246.272C399.842 244.385 406.319 240.129 410.951 234.169C415.583 228.209 418.109 220.882 418.133 213.333V179.2C418.105 171.655 415.577 164.331 410.946 158.375C406.314 152.419 399.839 148.165 392.533 146.278V136.533C392.533 100.322 378.149 65.5947 352.544 39.9897C326.939 14.3847 292.211 0 256 0C219.789 0 185.061 14.3847 159.456 39.9897C133.851 65.5947 119.467 100.322 119.467 136.533V146.278C112.161 148.165 105.686 152.419 101.054 158.375C96.4225 164.331 93.8949 171.655 93.8667 179.2V213.333C93.8667 222.386 97.4628 231.068 103.864 237.469C110.265 243.87 118.947 247.467 128 247.467H145.067C147.98 247.438 150.867 246.907 153.6 245.897V248.841C153.595 261.023 158.017 272.793 166.042 281.958L188.228 307.26L172.493 343.953L133.333 367.428ZM176.777 361.276C192.211 381.613 213.345 396.901 237.491 405.197C229.263 413.255 222.426 422.62 217.259 432.913C190.396 420.374 166.972 401.512 148.992 377.941L176.777 361.276ZM443.733 440.448V454.255C443.737 459.874 441.895 465.339 438.491 469.81C435.087 474.281 430.309 477.51 424.892 479.002C398.208 486.246 347.247 494.933 256 494.933C164.753 494.933 113.792 486.246 87.1083 478.959C81.6978 477.469 76.9251 474.246 73.5218 469.784C70.1186 465.322 68.2725 459.867 68.2667 454.255V440.448C68.2082 428.783 72.1611 417.451 79.4629 408.354C86.7647 399.256 96.9717 392.944 108.373 390.477L132.898 385.024C142.515 397.935 171.674 433.374 212.958 449.57C216.49 450.928 220.406 450.896 223.915 449.48C227.425 448.064 230.266 445.37 231.868 441.941C237.466 430.097 245.725 419.706 256 411.58C266.278 419.704 274.543 430.091 280.149 441.933C281.359 444.509 283.275 446.688 285.676 448.215C288.077 449.743 290.863 450.556 293.709 450.56C295.543 450.562 297.361 450.218 299.068 449.545C340.343 433.331 369.502 397.909 379.119 384.998L403.644 390.451C415.047 392.923 425.253 399.24 432.552 408.343C439.851 417.445 443.799 428.781 443.733 440.448ZM294.741 432.913C289.578 422.618 282.741 413.252 274.509 405.197C298.655 396.901 319.789 381.613 335.223 361.276L363.008 377.941C345.026 401.51 321.603 420.372 294.741 432.913ZM363.605 280.619C357.415 285.332 349.644 287.472 341.914 286.592L345.958 281.967C353.983 272.797 358.404 261.025 358.4 248.841V245.897C361.133 246.907 364.02 247.438 366.933 247.467H375.467V256.512C375.483 261.173 374.421 265.774 372.364 269.957C370.306 274.139 367.308 277.788 363.605 280.619ZM341.333 144.939C262.938 142.583 246.963 108.015 246.861 107.767C246.228 106.183 245.134 104.824 243.721 103.867C242.308 102.91 240.64 102.399 238.933 102.4C214.106 102.439 190.221 111.914 172.117 128.905C179.755 86.5536 216.303 51.2 256 51.2C278.624 51.2248 300.315 60.2233 316.312 76.221C332.31 92.2187 341.309 113.909 341.333 136.533V144.939ZM401.067 179.2V213.333C401.067 217.86 399.269 222.201 396.068 225.401C392.867 228.602 388.526 230.4 384 230.4H366.933C364.67 230.4 362.5 229.501 360.899 227.901C359.299 226.3 358.4 224.13 358.4 221.867V170.667C358.4 168.403 359.299 166.233 360.899 164.633C362.5 163.032 364.67 162.133 366.933 162.133H384C388.526 162.133 392.867 163.931 396.068 167.132C399.269 170.333 401.067 174.674 401.067 179.2ZM256 17.0667C287.674 17.1005 318.041 29.6981 340.438 52.0951C362.835 74.4921 375.433 104.859 375.467 136.533V145.067H366.933C364.02 145.095 361.133 145.626 358.4 146.637V136.533C358.371 109.384 347.573 83.3554 328.375 64.158C309.178 44.9607 283.149 34.1627 256 34.1333C201.446 34.1333 153.6 85.9733 153.6 145.067V146.637C150.867 145.626 147.98 145.095 145.067 145.067H136.533V136.533C136.567 104.859 149.165 74.4921 171.562 52.0951C193.959 29.6981 224.326 17.1005 256 17.0667ZM145.067 230.4H128C123.474 230.4 119.133 228.602 115.932 225.401C112.731 222.201 110.933 217.86 110.933 213.333V179.2C110.933 174.674 112.731 170.333 115.932 167.132C119.133 163.931 123.474 162.133 128 162.133H145.067C147.33 162.133 149.5 163.032 151.101 164.633C152.701 166.233 153.6 168.403 153.6 170.667V221.867C153.6 224.13 152.701 226.3 151.101 227.901C149.5 229.501 147.33 230.4 145.067 230.4ZM170.667 248.841V156.16C177.86 145.75 187.28 137.071 198.243 130.752C209.207 124.434 221.439 120.634 234.052 119.629C242.108 131.823 268.629 159.863 341.333 161.946V248.841C341.334 256.892 338.411 264.671 333.107 270.729L323.123 282.138L299.23 275.755L299.486 274.697C300.008 272.516 300.095 270.254 299.742 268.039C299.39 265.825 298.604 263.701 297.43 261.791C296.257 259.88 294.718 258.219 292.902 256.904C291.086 255.588 289.029 254.643 286.848 254.123L261.956 248.149C255.35 246.567 248.386 247.675 242.596 251.227C236.806 254.78 232.665 260.487 231.083 267.093C229.501 273.7 230.608 280.664 234.161 286.454C237.713 292.243 243.42 296.385 250.027 297.967L274.918 303.94C276.232 304.255 277.578 304.416 278.929 304.418C282.57 304.42 286.115 303.247 289.036 301.073C291.957 298.899 294.099 295.841 295.142 292.352L310.579 296.482L297.813 311.04C294.181 315.194 289.702 318.523 284.678 320.804C279.653 323.085 274.199 324.266 268.681 324.267H243.319C237.802 324.263 232.348 323.082 227.324 320.8C222.3 318.519 217.821 315.192 214.187 311.04L178.91 270.72C173.6 264.668 170.67 256.892 170.667 248.841ZM282.88 270.729L278.921 287.317L254.02 281.344C252.917 281.096 251.875 280.632 250.953 279.978C250.031 279.323 249.248 278.493 248.65 277.533C248.052 276.574 247.65 275.506 247.468 274.39C247.287 273.274 247.328 272.133 247.591 271.034C247.854 269.935 248.333 268.898 248.999 267.985C249.666 267.072 250.508 266.301 251.475 265.716C252.442 265.131 253.516 264.744 254.634 264.578C255.752 264.411 256.893 264.469 257.988 264.747L282.88 270.729ZM201.318 322.278C206.556 328.266 213.013 333.064 220.257 336.351C227.501 339.637 235.365 341.336 243.319 341.333H268.681C276.635 341.336 284.499 339.636 291.743 336.35C298.987 333.063 305.444 328.266 310.682 322.278L311.364 321.502L323.115 348.937C306.925 371.266 282.997 386.763 256 392.405C229.003 386.763 205.075 371.266 188.885 348.937L200.644 321.502L201.318 322.278Z" fill="#CFA836"/>
</svg>
