<svg width="606" height="606" viewBox="0 0 606 606" fill="none" xmlns="http://www.w3.org/2000/svg">
<g clip-path="url(#clip0_533_14)">
<path fill-rule="evenodd" clip-rule="evenodd" d="M207.462 370.47H335.74C341.018 370.47 345.302 366.186 345.302 360.908C345.302 355.63 341.018 351.346 335.74 351.346H207.462C202.184 351.346 197.9 355.63 197.9 360.908C197.9 366.186 202.183 370.47 207.462 370.47Z" fill="#CFA836"/>
<path fill-rule="evenodd" clip-rule="evenodd" d="M288.188 360.907V591.127C288.188 596.406 292.472 600.689 297.75 600.689C303.022 600.689 307.312 596.405 307.312 591.127V360.907C307.312 355.628 303.022 351.345 297.75 351.345C292.472 351.345 288.188 355.629 288.188 360.907Z" fill="#CFA836"/>
<path fill-rule="evenodd" clip-rule="evenodd" d="M83.404 4.93359C46.187 4.93359 15.963 35.1576 15.963 72.3806C15.963 109.604 46.187 139.822 83.404 139.822C120.628 139.822 150.852 109.605 150.852 72.3806C150.852 35.1566 120.628 4.93359 83.404 4.93359ZM83.404 24.0586C110.077 24.0586 131.727 45.7086 131.727 72.3806C131.727 99.0476 110.077 120.697 83.404 120.697C56.737 120.697 35.088 99.0476 35.088 72.3806C35.088 45.7076 56.738 24.0586 83.404 24.0586Z" fill="#CFA836"/>
<path fill-rule="evenodd" clip-rule="evenodd" d="M522.221 4.93359C484.997 4.93359 454.773 35.1576 454.773 72.3806C454.773 109.604 484.997 139.822 522.221 139.822C559.438 139.822 589.662 109.605 589.662 72.3806C589.662 35.1566 559.438 4.93359 522.221 4.93359ZM522.221 24.0586C548.888 24.0586 570.537 45.7086 570.537 72.3806C570.537 99.0476 548.888 120.697 522.221 120.697C495.548 120.697 473.898 99.0476 473.898 72.3806C473.898 45.7076 495.548 24.0586 522.221 24.0586Z" fill="#CFA836"/>
<path fill-rule="evenodd" clip-rule="evenodd" d="M136.113 277.038C137.694 280.226 140.971 282.348 144.675 282.348L148.226 281.659L236.277 246.463C249.83 241.051 265.226 247.649 270.645 261.202C276.057 274.749 269.453 290.145 255.906 295.563L139.62 342.043C128.508 346.486 115.924 342.891 108.803 333.558C106.317 330.3 102.026 328.987 98.138 330.3C94.256 331.613 91.642 335.26 91.642 339.359V387.382C91.642 392.24 95.282 396.32 100.102 396.881L177.501 405.819C195.791 407.929 209.599 423.42 209.599 441.838V591.128C209.599 596.407 213.883 600.69 219.161 600.69C224.44 600.69 228.723 596.406 228.723 591.128V441.838C228.723 413.705 207.635 390.047 179.693 386.822L110.766 378.86V358.893C121.795 363.961 134.749 364.586 146.715 359.805L263.008 313.325C286.353 303.986 297.733 277.453 288.4 254.101C279.067 230.749 252.534 219.37 229.183 228.703L148.628 260.903L102.352 185.162C95.818 174.465 85.165 166.936 72.906 164.341C72.53 164.265 72.154 164.182 71.771 164.105C58.925 161.389 45.531 164.347 35.025 172.22C24.519 180.1 17.921 192.123 16.926 205.217C11.303 279.205 0.026 427.488 0.026 427.488C0.006 427.73 0 427.972 0 428.215C0 456.316 21.044 479.954 48.947 483.218L117.956 492.13V591.127C117.956 596.406 122.24 600.689 127.518 600.689C132.796 600.689 137.08 596.405 137.08 591.127V483.722C137.08 478.909 133.51 474.854 128.741 474.236L51.221 464.234C33.059 462.137 19.32 446.849 19.123 428.604C19.123 428.553 35.991 206.665 35.991 206.665C36.571 199.072 40.396 192.092 46.491 187.527C52.592 182.956 60.357 181.241 67.815 182.816L68.943 183.052C76.058 184.557 82.235 188.93 86.028 195.133C100.493 218.81 129.811 266.801 135.53 276.166C135.724 276.471 135.915 276.764 136.113 277.038Z" fill="#CFA836"/>
<path fill-rule="evenodd" clip-rule="evenodd" d="M60.193 290.948L90.921 341.253C102.504 360.212 126.079 368.053 146.715 359.804C151.617 357.847 154.008 352.275 152.045 347.379C150.088 342.477 144.516 340.086 139.62 342.043C127.648 346.831 113.967 342.285 107.241 331.282L76.514 280.977C73.76 276.476 67.869 275.055 63.369 277.802C58.867 280.557 57.439 286.447 60.193 290.948Z" fill="#CFA836"/>
<path fill-rule="evenodd" clip-rule="evenodd" d="M448.15 275.393L355.559 288.487C330.658 292.006 313.306 315.083 316.825 339.984C320.344 364.878 343.421 382.237 368.322 378.718L482.199 362.608C486.63 361.983 490.888 360.721 494.86 358.891V378.857L425.933 386.819C397.991 390.045 376.903 413.702 376.903 441.835V591.125C376.903 596.404 381.187 600.687 386.465 600.687C391.743 600.687 396.027 596.403 396.027 591.125V441.835C396.027 423.418 409.835 407.926 428.125 405.816L505.498 396.878H505.479C510.267 396.355 513.983 392.301 513.983 387.379V339.35C513.983 335.251 511.369 331.611 507.487 330.298C503.605 328.978 499.314 330.292 496.822 333.549C492.634 339.032 486.431 342.697 479.52 343.673L365.643 359.776C351.191 361.822 337.803 351.75 335.763 337.298C333.717 322.852 343.789 309.465 358.235 307.418L455.269 293.699L453.956 293.788L462.116 289.211L513.855 204.519C520.472 193.694 532.591 187.479 545.246 188.435C545.425 188.448 545.597 188.46 545.775 188.473C562.822 189.761 576.228 203.569 577.006 220.641L586.498 428.415C586.396 446.737 572.626 462.12 554.4 464.23L478.493 472.996C473.718 473.544 470.097 477.554 470.033 482.361L468.541 590.991C468.471 596.27 472.697 600.611 477.97 600.687C483.249 600.757 487.59 596.531 487.666 591.252L489.037 491.024L556.593 483.227C584.535 480.001 605.623 456.337 605.623 428.211C605.623 428.064 605.617 427.918 605.61 427.771C605.61 427.771 599.273 289.026 596.111 219.768C594.887 193.031 573.901 171.414 547.215 169.405C547.036 169.392 546.858 169.373 546.686 169.36C526.873 167.868 507.894 177.596 497.535 194.548L448.15 275.393Z" fill="#CFA836"/>
<path fill-rule="evenodd" clip-rule="evenodd" d="M393.14 33.6206C393.14 26.0156 390.118 18.7156 384.738 13.3356C379.357 7.95459 372.065 4.93359 364.453 4.93359H231.043C215.195 4.93359 202.355 17.7796 202.355 33.6206V155.154C202.355 161.401 206.001 167.075 211.688 169.663C217.374 172.251 224.049 171.276 228.76 167.17C237.959 159.157 250.92 147.86 258.142 141.562C259.889 140.045 262.12 139.21 264.428 139.21H364.452C372.064 139.21 379.357 136.188 384.737 130.808C390.117 125.427 393.139 118.128 393.139 110.523V33.6206H393.14ZM221.48 148.148V33.6206C221.48 28.3426 225.758 24.0586 231.042 24.0586H364.452C366.989 24.0586 369.424 25.0656 371.216 26.8636C373.007 28.6546 374.015 31.0836 374.015 33.6206V110.523C374.015 113.06 373.008 115.489 371.216 117.28C369.425 119.078 366.989 120.085 364.452 120.085H264.429C257.499 120.085 250.806 122.59 245.578 127.142L221.48 148.148Z" fill="#CFA836"/>
<path fill-rule="evenodd" clip-rule="evenodd" d="M255.147 64.1699H341.796C347.075 64.1699 351.358 59.8859 351.358 54.6079C351.358 49.3299 347.074 45.0459 341.796 45.0459H255.147C249.869 45.0459 245.585 49.3299 245.585 54.6079C245.585 59.8859 249.868 64.1699 255.147 64.1699Z" fill="#CFA836"/>
<path fill-rule="evenodd" clip-rule="evenodd" d="M255.147 99.042H297.751C303.023 99.042 307.313 94.758 307.313 89.48C307.313 84.201 303.023 79.918 297.751 79.918H255.147C249.869 79.918 245.585 84.202 245.585 89.48C245.584 94.758 249.868 99.042 255.147 99.042Z" fill="#CFA836"/>
<path fill-rule="evenodd" clip-rule="evenodd" d="M453.467 366.676L482.199 362.609C495.682 360.703 507.603 352.868 514.705 341.253L545.432 290.948C548.186 286.447 546.758 280.557 542.257 277.803C537.756 275.055 531.866 276.477 529.112 280.978L498.385 331.283C494.267 338.021 487.343 342.567 479.521 343.676L450.789 347.737C445.561 348.477 441.915 353.322 442.654 358.549C443.394 363.769 448.239 367.415 453.467 366.676Z" fill="#CFA836"/>
</g>
<defs>
<clipPath id="clip0_533_14">
<rect width="605.625" height="605.625" fill="white"/>
</clipPath>
</defs>
</svg>
